<?xml version="1.0" encoding="UTF-8" standalone="no"?>
<!-- Created with Inkscape (http://www.inkscape.org/) -->

<svg
   xmlns:dc="http://purl.org/dc/elements/1.1/"
   xmlns:cc="http://creativecommons.org/ns#"
   xmlns:rdf="http://www.w3.org/1999/02/22-rdf-syntax-ns#"
   xmlns:svg="http://www.w3.org/2000/svg"
   xmlns="http://www.w3.org/2000/svg"
   xmlns:sodipodi="http://sodipodi.sourceforge.net/DTD/sodipodi-0.dtd"
   xmlns:inkscape="http://www.inkscape.org/namespaces/inkscape"
   width="500"
   height="500"
   viewBox="0 0 210 297"
   version="1.1"
   id="svg821"
   inkscape:version="0.92.4 (5da689c313, 2019-01-14)"
   sodipodi:docname="drawing.svg">
  <defs
     id="defs815" />
  <sodipodi:namedview
     id="base"
     pagecolor="#ffffff"
     bordercolor="#666666"
     borderopacity="1.0"
     inkscape:pageopacity="0.0"
     inkscape:pageshadow="2"
     inkscape:zoom="0.98994949"
     inkscape:cx="-7.1014242"
     inkscape:cy="241.33787"
     inkscape:document-units="mm"
     inkscape:current-layer="layer1"
     showgrid="true"
     inkscape:window-width="1920"
     inkscape:window-height="1001"
     inkscape:window-x="-9"
     inkscape:window-y="-9"
     inkscape:window-maximized="1">
    <inkscape:grid
       type="xygrid"
       id="grid1366" />
  </sodipodi:namedview>
  <metadata
     id="metadata818">
    <rdf:RDF>
      <cc:Work
         rdf:about="">
        <dc:format>image/svg+xml</dc:format>
        <dc:type
           rdf:resource="http://purl.org/dc/dcmitype/StillImage" />
        <dc:title />
      </cc:Work>
    </rdf:RDF>
  </metadata>
  <g
     inkscape:label="Layer 1"
     inkscape:groupmode="layer"
     id="layer1">
    <path
       sodipodi:type="spiral"
       style="fill:#c65656;fill-rule:evenodd;stroke:#000000;stroke-width:0.59399998;fill-opacity:1"
       id="path5143"
       sodipodi:cx="105"
       sodipodi:cy="154.44"
       sodipodi:expansion="1"
       sodipodi:revolution="3"
       sodipodi:radius="127.12154"
       sodipodi:argument="-21.073198"
       sodipodi:t0="0"
       d="m 105,154.44 c -3.87168,-5.06298 4.91464,-7.71685 8.415,-6.43499 9.48577,3.47374 9.38774,16.20401 4.45499,23.265 -8.82354,12.63044 -27.251271,11.79088 -38.114998,2.47498 -15.942956,-13.67146 -14.287829,-38.45655 -0.49497,-52.965 18.383712,-19.33747 49.718998,-16.82611 67.814988,1.48504 22.77196,23.04271 19.38604,61.00895 -3.46504,82.66499 -27.67573,26.22836 -72.314456,21.95856 -97.514988,-5.44506 C 16.397026,167.19075 21.555989,115.85531 53.520044,87.119982 90.42381,53.943906 148.47137,59.995279 180.73502,96.525052 217.39504,138.0325 210.44913,202.8026 169.34995,238.59003 123.24288,278.73812 51.742866,270.89621 12.434971,225.22494 -31.204242,174.52118 -22.465286,96.285837 27.780066,53.459971" />
  </g>
</svg>
